<svg width="33" height="32" viewBox="0 0 33 32" fill="none" xmlns="http://www.w3.org/2000/svg">
<path d="M29.9949 10.815L16.8549 5.25996C16.7538 5.21666 16.6449 5.19434 16.5349 5.19434C16.4249 5.19434 16.3161 5.21666 16.2149 5.25996L3.00993 10.795C2.86128 10.8605 2.73482 10.9677 2.64588 11.1037C2.55693 11.2396 2.50932 11.3984 2.50879 11.5609C2.50827 11.7233 2.55487 11.8824 2.64294 12.0189C2.73101 12.1554 2.85677 12.2635 3.00499 12.33C3.78549 12.6644 8.35387 14.5812 8.99486 14.8599L16.2149 17.905C16.4207 17.9871 16.6505 17.9853 16.8549 17.9C19.1745 16.9212 25.1619 14.3902 27.3899 13.445C27.3845 14.0639 27.3938 19.2831 27.3899 20.04C26.3968 20.2905 25.9936 21.9835 26.55 22.9L25.8149 26.2C25.7916 26.299 25.7998 26.4028 25.8383 26.4969C25.8769 26.591 25.9439 26.6707 26.0299 26.725C26.1154 26.7809 26.216 26.809 26.3181 26.8054C26.4202 26.8019 26.5186 26.7668 26.5999 26.705C26.9554 26.4424 27.3831 26.2957 27.8249 26.285C28.295 26.278 28.7541 26.4275 29.1299 26.71C29.2145 26.7694 29.3154 26.8015 29.4188 26.8019C29.5222 26.8023 29.6233 26.7709 29.7083 26.712C29.7934 26.6532 29.8583 26.5696 29.8943 26.4727C29.9304 26.3757 29.9358 26.27 29.9099 26.1699L28.9749 22.885C29.4561 22.0601 29.1944 20.5785 28.3899 20.165C28.3944 19.4016 28.3867 13.6257 28.3899 13.025L29.9949 12.345C30.1427 12.279 30.2682 12.1716 30.3562 12.0359C30.4443 11.9001 30.4911 11.7418 30.4911 11.58C30.4911 11.4181 30.4443 11.2598 30.3562 11.124C30.2682 10.9883 30.1427 10.8809 29.9949 10.815Z" fill="url(#paint0_linear_1986_6391)"/>
<path d="M15.8251 18.8246C15.2229 18.5706 8.36612 15.6725 7.99512 15.5196V20.3896C7.99852 20.6511 8.06537 20.9079 8.18991 21.1378C8.31446 21.3677 8.49297 21.564 8.71012 21.7096C10.9083 23.2041 13.4881 24.0386 16.1451 24.1146C19.0566 24.1725 21.9162 23.3385 24.3401 21.7246C24.5627 21.5782 24.746 21.3796 24.8742 21.146C25.0023 20.9124 25.0713 20.651 25.0751 20.3846V15.5146C24.7283 15.6651 17.8335 18.5758 17.2451 18.8246C16.7903 19.0121 16.2799 19.0121 15.8251 18.8246Z" fill="url(#paint1_linear_1986_6391)"/>
<defs>
<linearGradient id="paint0_linear_1986_6391" x1="2.50879" y1="16" x2="30.4911" y2="16" gradientUnits="userSpaceOnUse">
<stop stop-color="#7AFFD7"/>
<stop offset="1" stop-color="#00FFB2"/>
</linearGradient>
<linearGradient id="paint1_linear_1986_6391" x1="7.99512" y1="19.816" x2="25.0751" y2="19.816" gradientUnits="userSpaceOnUse">
<stop stop-color="#7AFFD7"/>
<stop offset="1" stop-color="#00FFB2"/>
</linearGradient>
</defs>
</svg>

